<svg width="140" height="49" viewBox="0 0 140 49" fill="none" xmlns="http://www.w3.org/2000/svg">
<g clip-path="url(#clip0_521_2479)">
<path d="M23.736 7.22713L20.6579 6.40234L18.0639 16.0832L15.722 7.34326L12.6438 8.16805L15.1741 17.611L8.87181 11.3087L6.61845 13.5621L13.5313 20.4749L4.92245 18.1682L4.09766 21.2463L13.5039 23.7667C13.3962 23.3022 13.3392 22.8182 13.3392 22.3209C13.3392 18.801 16.1927 15.9475 19.7127 15.9475C23.2327 15.9475 26.0862 18.801 26.0862 22.3209C26.0862 22.815 26.0299 23.296 25.9236 23.7578L34.4721 26.0483L35.2968 22.9702L25.8532 20.4398L34.4626 18.1329L33.6378 15.0548L24.1946 17.585L30.4968 11.2828L28.2435 9.02945L21.4265 15.8464L23.736 7.22713Z" fill="#F97316"/>
<path d="M25.9156 23.793C25.6517 24.9087 25.0946 25.911 24.3301 26.7141L30.5231 32.9072L32.7765 30.6538L25.9156 23.793Z" fill="#F97316"/>
<path d="M24.2669 26.7793C23.4932 27.5695 22.5154 28.1592 21.4189 28.4631L23.6725 36.8734L26.7506 36.0486L24.2669 26.7793Z" fill="#F97316"/>
<path d="M21.3038 28.4938C20.7951 28.6246 20.2619 28.6941 19.7124 28.6941C19.1237 28.6941 18.5536 28.6142 18.0124 28.4648L15.7568 36.8827L18.835 37.7075L21.3038 28.4938Z" fill="#F97316"/>
<path d="M17.9037 28.4353C16.824 28.1163 15.8636 27.5191 15.1057 26.7266L8.89746 32.9348L11.1508 35.1882L17.9037 28.4353Z" fill="#F97316"/>
<path d="M15.0539 26.6701C14.3089 25.8726 13.7663 24.8837 13.5081 23.7852L4.93164 26.0832L5.75642 29.1613L15.0539 26.6701Z" fill="#F97316"/>
<path d="M43.7633 21.3915C42.8795 21.3915 42.0874 21.248 41.3872 20.961C40.687 20.6741 40.1246 20.2494 39.6999 19.6869C39.2866 19.1244 39.0685 18.4472 39.0456 17.6552H42.1793C42.2252 18.1028 42.3801 18.4472 42.6442 18.6883C42.9082 18.9178 43.2525 19.0326 43.6772 19.0326C44.1134 19.0326 44.4578 18.9351 44.7103 18.7399C44.9629 18.5333 45.0891 18.2521 45.0891 17.8962C45.0891 17.5978 44.9858 17.351 44.7792 17.1559C44.5841 16.9607 44.3373 16.8 44.0388 16.6737C43.7519 16.5475 43.3386 16.404 42.7991 16.2433C42.0186 16.0022 41.3815 15.7612 40.8879 15.5201C40.3943 15.2791 39.9696 14.9232 39.6138 14.4526C39.2579 13.982 39.08 13.3679 39.08 12.6103C39.08 11.4854 39.4875 10.6073 40.3025 9.97593C41.1175 9.33312 42.1793 9.01172 43.4878 9.01172C44.8194 9.01172 45.8926 9.33312 46.7076 9.97593C47.5226 10.6073 47.9588 11.4911 48.0162 12.6275H44.8308C44.8079 12.2372 44.6644 11.933 44.4004 11.715C44.1364 11.4854 43.7978 11.3706 43.3845 11.3706C43.0287 11.3706 42.7417 11.4682 42.5236 11.6633C42.3055 11.847 42.1965 12.1167 42.1965 12.4725C42.1965 12.8628 42.3801 13.167 42.7475 13.3851C43.1148 13.6032 43.6887 13.8385 44.4693 14.091C45.2498 14.3551 45.8812 14.6076 46.3633 14.8486C46.8568 15.0897 47.2816 15.4398 47.6374 15.8989C47.9932 16.3581 48.1711 16.9492 48.1711 17.6724C48.1711 18.3611 47.9932 18.9867 47.6374 19.5492C47.293 20.1116 46.788 20.5593 46.1222 20.8922C45.4564 21.2251 44.6701 21.3915 43.7633 21.3915Z" fill="#3C2B1F"/>
<path d="M59.2808 11.6633L53.2545 25.8337H50.0864L52.2903 20.9438L48.3818 11.6633H51.6704L53.8916 17.6724L56.0955 11.6633H59.2808Z" fill="#3C2B1F"/>
<path d="M65.6831 11.56C66.808 11.56 67.7034 11.9273 68.3691 12.6619C69.0464 13.3851 69.385 14.3837 69.385 15.6579V21.271H66.4579V16.0539C66.4579 15.4111 66.2915 14.9118 65.9586 14.5559C65.6257 14.2001 65.178 14.0222 64.6156 14.0222C64.0531 14.0222 63.6055 14.2001 63.2726 14.5559C62.9397 14.9118 62.7733 15.4111 62.7733 16.0539V21.271H59.829V11.6633H62.7733V12.9374C63.0717 12.5127 63.4735 12.1798 63.9785 11.9388C64.4836 11.6863 65.0518 11.56 65.6831 11.56Z" fill="#3C2B1F"/>
<path d="M70.329 16.4671C70.329 15.4685 70.5299 14.5961 70.9317 13.85C71.3449 13.1039 71.9131 12.5299 72.6362 12.1282C73.3709 11.7264 74.2088 11.5256 75.1501 11.5256C76.3553 11.5256 77.3597 11.8412 78.1632 12.4725C78.9782 13.1039 79.512 13.9935 79.7645 15.1413H76.6308C76.3668 14.4067 75.856 14.0394 75.0984 14.0394C74.5589 14.0394 74.1285 14.2517 73.8071 14.6765C73.4857 15.0897 73.325 15.6866 73.325 16.4671C73.325 17.2477 73.4857 17.8503 73.8071 18.275C74.1285 18.6883 74.5589 18.8949 75.0984 18.8949C75.856 18.8949 76.3668 18.5276 76.6308 17.7929H79.7645C79.512 18.9178 78.9782 19.8017 78.1632 20.4445C77.3482 21.0873 76.3439 21.4087 75.1501 21.4087C74.2088 21.4087 73.3709 21.2078 72.6362 20.8061C71.9131 20.4043 71.3449 19.8304 70.9317 19.0843C70.5299 18.3382 70.329 17.4658 70.329 16.4671Z" fill="#3C2B1F"/>
<path d="M85.1963 21.4087C84.255 21.4087 83.4056 21.2078 82.648 20.8061C81.9019 20.4043 81.3107 19.8304 80.8745 19.0843C80.4498 18.3382 80.2375 17.4658 80.2375 16.4671C80.2375 15.48 80.4556 14.6133 80.8917 13.8672C81.3279 13.1096 81.9248 12.5299 82.6824 12.1282C83.44 11.7264 84.2894 11.5256 85.2307 11.5256C86.172 11.5256 87.0214 11.7264 87.779 12.1282C88.5366 12.5299 89.1335 13.1096 89.5696 13.8672C90.0058 14.6133 90.2239 15.48 90.2239 16.4671C90.2239 17.4543 90.0001 18.3267 89.5524 19.0843C89.1162 19.8304 88.5136 20.4043 87.7445 20.8061C86.9869 21.2078 86.1375 21.4087 85.1963 21.4087ZM85.1963 18.8604C85.7587 18.8604 86.2351 18.6538 86.6254 18.2406C87.0271 17.8274 87.228 17.2362 87.228 16.4671C87.228 15.6981 87.0329 15.1069 86.6426 14.6937C86.2638 14.2804 85.7932 14.0738 85.2307 14.0738C84.6568 14.0738 84.1804 14.2804 83.8016 14.6937C83.4228 15.0954 83.2334 15.6866 83.2334 16.4671C83.2334 17.2362 83.4171 17.8274 83.7844 18.2406C84.1632 18.6538 84.6338 18.8604 85.1963 18.8604Z" fill="#3C2B1F"/>
<path d="M94.2137 13.2646C94.558 12.7366 94.9885 12.3233 95.505 12.0249C96.0216 11.715 96.5955 11.56 97.2268 11.56V14.6765H96.4176C95.6829 14.6765 95.132 14.8372 94.7647 15.1586C94.3973 15.4685 94.2137 16.0195 94.2137 16.8115V21.271H91.2694V11.6633H94.2137V13.2646Z" fill="#3C2B1F"/>
<path d="M107.174 16.3122C107.174 16.5877 107.157 16.8746 107.123 17.1731H100.459C100.505 17.77 100.695 18.2291 101.027 18.5505C101.372 18.8604 101.791 19.0154 102.284 19.0154C103.019 19.0154 103.53 18.7055 103.817 18.0856H106.95C106.79 18.717 106.497 19.2852 106.072 19.7902C105.659 20.2953 105.137 20.6913 104.505 20.9783C103.874 21.2652 103.168 21.4087 102.388 21.4087C101.446 21.4087 100.608 21.2078 99.8738 20.8061C99.1392 20.4043 98.5653 19.8304 98.152 19.0843C97.7388 18.3382 97.5322 17.4658 97.5322 16.4671C97.5322 15.4685 97.7331 14.5961 98.1348 13.85C98.548 13.1039 99.122 12.5299 99.8566 12.1282C100.591 11.7264 101.435 11.5256 102.388 11.5256C103.317 11.5256 104.144 11.7207 104.867 12.111C105.59 12.5012 106.153 13.058 106.554 13.7811C106.968 14.5043 107.174 15.348 107.174 16.3122ZM104.161 15.5374C104.161 15.0323 103.989 14.6305 103.645 14.3321C103.3 14.0336 102.87 13.8844 102.353 13.8844C101.86 13.8844 101.441 14.0279 101.096 14.3149C100.763 14.6018 100.557 15.0093 100.476 15.5374H104.161Z" fill="#3C2B1F"/>
<path d="M38.8906 29.2977C38.8906 28.1039 39.1489 27.0421 39.6654 26.1124C40.182 25.1711 40.8994 24.4422 41.8177 23.9257C42.7475 23.3977 43.7978 23.1336 44.9686 23.1336C46.4034 23.1336 47.6317 23.5124 48.6533 24.27C49.6749 25.0276 50.3578 26.0607 50.7022 27.3693H47.4652C47.2242 26.8642 46.8798 26.4797 46.4321 26.2157C45.9959 25.9517 45.4966 25.8197 44.9342 25.8197C44.0273 25.8197 43.2927 26.1353 42.7302 26.7667C42.1678 27.398 41.8866 28.2417 41.8866 29.2977C41.8866 30.3537 42.1678 31.1974 42.7302 31.8288C43.2927 32.4601 44.0273 32.7757 44.9342 32.7757C45.4966 32.7757 45.9959 32.6437 46.4321 32.3797C46.8798 32.1157 47.2242 31.7312 47.4652 31.2261H50.7022C50.3578 32.5347 49.6749 33.5678 48.6533 34.3254C47.6317 35.0715 46.4034 35.4445 44.9686 35.4445C43.7978 35.4445 42.7475 35.1863 41.8177 34.6697C40.8994 34.1417 40.182 33.4128 39.6654 32.483C39.1489 31.5533 38.8906 30.4915 38.8906 29.2977Z" fill="#3C2B1F"/>
<path d="M56.3621 35.4962C55.4208 35.4962 54.5714 35.2953 53.8138 34.8936C53.0677 34.4918 52.4766 33.9179 52.0404 33.1718C51.6157 32.4256 51.4033 31.5533 51.4033 30.5546C51.4033 29.5675 51.6214 28.7008 52.0576 27.9547C52.4938 27.1971 53.0907 26.6174 53.8483 26.2157C54.6059 25.8139 55.4553 25.613 56.3965 25.613C57.3378 25.613 58.1872 25.8139 58.9448 26.2157C59.7024 26.6174 60.2993 27.1971 60.7355 27.9547C61.1717 28.7008 61.3898 29.5675 61.3898 30.5546C61.3898 31.5418 61.1659 32.4142 60.7183 33.1718C60.2821 33.9179 59.6794 34.4918 58.9104 34.8936C58.1528 35.2953 57.3033 35.4962 56.3621 35.4962ZM56.3621 32.9479C56.9246 32.9479 57.4009 32.7413 57.7912 32.3281C58.1929 31.9148 58.3938 31.3237 58.3938 30.5546C58.3938 29.7855 58.1987 29.1944 57.8084 28.7812C57.4296 28.3679 56.959 28.1613 56.3965 28.1613C55.8226 28.1613 55.3462 28.3679 54.9674 28.7812C54.5886 29.1829 54.3992 29.7741 54.3992 30.5546C54.3992 31.3237 54.5829 31.9148 54.9502 32.3281C55.329 32.7413 55.7996 32.9479 56.3621 32.9479Z" fill="#3C2B1F"/>
<path d="M68.2894 25.6475C69.4143 25.6475 70.3096 26.0148 70.9754 26.7494C71.6526 27.4726 71.9912 28.4712 71.9912 29.7454V35.3585H69.0642V30.1414C69.0642 29.4986 68.8977 28.9993 68.5648 28.6434C68.232 28.2876 67.7843 28.1097 67.2218 28.1097C66.6594 28.1097 66.2117 28.2876 65.8788 28.6434C65.5459 28.9993 65.3795 29.4986 65.3795 30.1414V35.3585H62.4352V25.7508H65.3795V27.0249C65.678 26.6002 66.0797 26.2673 66.5848 26.0263C67.0898 25.7737 67.658 25.6475 68.2894 25.6475Z" fill="#3C2B1F"/>
<path d="M77.4292 35.4962C76.5912 35.4962 75.8451 35.3527 75.1908 35.0657C74.5365 34.7788 74.02 34.3885 73.6412 33.8949C73.2624 33.3899 73.0501 32.8274 73.0041 32.2076H75.914C75.9484 32.5404 76.1034 32.8102 76.3789 33.0168C76.6544 33.2234 76.993 33.3267 77.3947 33.3267C77.7621 33.3267 78.0433 33.2579 78.2384 33.1201C78.445 32.9709 78.5483 32.7815 78.5483 32.5519C78.5483 32.2764 78.4049 32.0755 78.1179 31.9493C77.8309 31.8115 77.366 31.6623 76.7232 31.5016C76.0345 31.3409 75.4606 31.1745 75.0014 31.0023C74.5423 30.8186 74.1463 30.5374 73.8134 30.1586C73.4805 29.7683 73.3141 29.246 73.3141 28.5918C73.3141 28.0408 73.4633 27.5415 73.7617 27.0938C74.0717 26.6346 74.5193 26.2731 75.1047 26.0091C75.7016 25.745 76.4076 25.613 77.2226 25.613C78.4278 25.613 79.3748 25.9115 80.0635 26.5084C80.7637 27.1053 81.1655 27.8973 81.2688 28.8845H78.5483C78.5024 28.5516 78.3532 28.2876 78.1007 28.0924C77.8596 27.8973 77.5382 27.7997 77.1365 27.7997C76.7921 27.7997 76.5281 27.8686 76.3444 28.0063C76.1608 28.1326 76.0689 28.3105 76.0689 28.5401C76.0689 28.8156 76.2124 29.0222 76.4994 29.16C76.7978 29.2977 77.257 29.4354 77.8768 29.5732C78.5885 29.7569 79.1682 29.9405 79.6159 30.1242C80.0635 30.2964 80.4538 30.5833 80.7867 30.9851C81.1311 31.3753 81.309 31.9034 81.3205 32.5691C81.3205 33.1316 81.1598 33.6367 80.8383 34.0843C80.5284 34.5205 80.075 34.8649 79.4781 35.1174C78.8927 35.3699 78.2097 35.4962 77.4292 35.4962Z" fill="#3C2B1F"/>
<path d="M92.0924 25.7508V35.3585H89.1481V34.0499C88.8496 34.4746 88.4421 34.819 87.9256 35.083C87.4205 35.3355 86.8581 35.4618 86.2382 35.4618C85.5036 35.4618 84.855 35.3011 84.2926 34.9797C83.7301 34.6468 83.2939 34.1704 82.984 33.5506C82.6741 32.9307 82.5191 32.2018 82.5191 31.3639V25.7508H85.4462V30.9679C85.4462 31.6107 85.6126 32.11 85.9455 32.4658C86.2784 32.8217 86.7261 32.9996 87.2885 32.9996C87.8625 32.9996 88.3159 32.8217 88.6487 32.4658C88.9816 32.11 89.1481 31.6107 89.1481 30.9679V25.7508H92.0924Z" fill="#3C2B1F"/>
<path d="M96.635 22.6171V35.3585H93.6907V22.6171H96.635Z" fill="#3C2B1F"/>
<path d="M103.607 32.8618V35.3585H102.109C101.041 35.3585 100.209 35.1002 99.6123 34.5836C99.0154 34.0556 98.717 33.2005 98.717 32.0182V28.1957H97.5462V25.7508H98.717V23.4091H101.661V25.7508H103.59V28.1957H101.661V32.0526C101.661 32.3396 101.73 32.5462 101.868 32.6724C102.006 32.7987 102.235 32.8618 102.557 32.8618H103.607Z" fill="#3C2B1F"/>
<path d="M106.211 24.7521C105.695 24.7521 105.27 24.6029 104.937 24.3045C104.616 23.9945 104.455 23.6157 104.455 23.1681C104.455 22.7089 104.616 22.3301 104.937 22.0317C105.27 21.7218 105.695 21.5668 106.211 21.5668C106.716 21.5668 107.129 21.7218 107.451 22.0317C107.784 22.3301 107.95 22.7089 107.95 23.1681C107.95 23.6157 107.784 23.9945 107.451 24.3045C107.129 24.6029 106.716 24.7521 106.211 24.7521ZM107.675 25.7508V35.3585H104.73V25.7508H107.675Z" fill="#3C2B1F"/>
<path d="M115.146 25.6475C116.271 25.6475 117.166 26.0148 117.832 26.7494C118.509 27.4726 118.848 28.4712 118.848 29.7454V35.3585H115.921V30.1414C115.921 29.4986 115.754 28.9993 115.421 28.6434C115.089 28.2876 114.641 28.1097 114.078 28.1097C113.516 28.1097 113.068 28.2876 112.735 28.6434C112.403 28.9993 112.236 29.4986 112.236 30.1414V35.3585H109.292V25.7508H112.236V27.0249C112.535 26.6002 112.936 26.2673 113.441 26.0263C113.946 25.7737 114.515 25.6475 115.146 25.6475Z" fill="#3C2B1F"/>
<path d="M124.028 25.613C124.705 25.613 125.296 25.7508 125.801 26.0263C126.318 26.3018 126.714 26.6633 126.989 27.111V25.7508H129.933V35.3412C129.933 36.2251 129.755 37.0229 129.4 37.7345C129.055 38.4577 128.521 39.0316 127.798 39.4564C127.087 39.8811 126.197 40.0934 125.129 40.0934C123.706 40.0934 122.553 39.7548 121.669 39.0776C120.785 38.4118 120.28 37.505 120.153 36.3571H123.063C123.155 36.7244 123.373 37.0114 123.718 37.218C124.062 37.4361 124.487 37.5451 124.992 37.5451C125.6 37.5451 126.082 37.3672 126.438 37.0114C126.805 36.667 126.989 36.1103 126.989 35.3412V33.981C126.702 34.4287 126.306 34.796 125.801 35.083C125.296 35.3585 124.705 35.4962 124.028 35.4962C123.235 35.4962 122.518 35.2953 121.875 34.8936C121.232 34.4803 120.722 33.9007 120.343 33.1545C119.976 32.3969 119.792 31.5246 119.792 30.5374C119.792 29.5502 119.976 28.6836 120.343 27.9375C120.722 27.1914 121.232 26.6174 121.875 26.2157C122.518 25.8139 123.235 25.613 124.028 25.613ZM126.989 30.5546C126.989 29.82 126.782 29.2403 126.369 28.8156C125.967 28.3909 125.474 28.1785 124.888 28.1785C124.303 28.1785 123.804 28.3909 123.39 28.8156C122.989 29.2288 122.788 29.8028 122.788 30.5374C122.788 31.272 122.989 31.8575 123.39 32.2936C123.804 32.7184 124.303 32.9307 124.888 32.9307C125.474 32.9307 125.967 32.7184 126.369 32.2936C126.782 31.8689 126.989 31.2893 126.989 30.5546Z" fill="#3C2B1F"/>
</g>
<defs>
<clipPath id="clip0_521_2479">
<rect width="132.266" height="36.0014" fill="white" transform="translate(3.86719 6.19727)"/>
</clipPath>
</defs>
</svg>
