<svg width="141" height="49" viewBox="0 0 141 49" fill="none" xmlns="http://www.w3.org/2000/svg">
<g clip-path="url(#clip0_537_516)">
<path d="M24.236 7.32088L21.1579 6.49609L18.5639 16.177L16.222 7.43701L13.1438 8.2618L15.6741 17.7047L9.37181 11.4024L7.11845 13.6558L14.0313 20.5687L5.42245 18.2619L4.59766 21.3401L14.0039 23.8605C13.8962 23.396 13.8392 22.912 13.8392 22.4147C13.8392 18.8947 16.6927 16.0412 20.2127 16.0412C23.7327 16.0412 26.5862 18.8947 26.5862 22.4147C26.5862 22.9088 26.5299 23.3898 26.4236 23.8515L34.9721 26.1421L35.7968 23.064L26.3532 20.5335L34.9626 18.2266L34.1378 15.1485L24.6946 17.6788L30.9968 11.3766L28.7435 9.1232L21.9265 15.9402L24.236 7.32088Z" fill="white"/>
<path d="M26.4156 23.8867C26.1517 25.0024 25.5946 26.0048 24.8301 26.8078L31.0231 33.0009L33.2765 30.7476L26.4156 23.8867Z" fill="white"/>
<path d="M24.7669 26.873C23.9932 27.6633 23.0154 28.253 21.9189 28.5569L24.1725 36.9671L27.2506 36.1423L24.7669 26.873Z" fill="white"/>
<path d="M21.8038 28.5876C21.2951 28.7183 20.7619 28.7878 20.2124 28.7878C19.6237 28.7878 19.0536 28.708 18.5124 28.5586L16.2568 36.9765L19.335 37.8012L21.8038 28.5876Z" fill="white"/>
<path d="M18.4037 28.529C17.324 28.21 16.3636 27.6128 15.6057 26.8203L9.39746 33.0286L11.6508 35.282L18.4037 28.529Z" fill="white"/>
<path d="M15.5539 26.7639C14.8089 25.9664 14.2663 24.9774 14.0081 23.8789L5.43164 26.177L6.25642 29.2551L15.5539 26.7639Z" fill="white"/>
<path d="M44.2633 21.4852C43.3795 21.4852 42.5874 21.3418 41.8872 21.0548C41.187 20.7678 40.6246 20.3431 40.1999 19.7807C39.7866 19.2182 39.5685 18.541 39.5456 17.7489H42.6793C42.7252 18.1966 42.8801 18.541 43.1442 18.782C43.4082 19.0116 43.7525 19.1264 44.1772 19.1264C44.6134 19.1264 44.9578 19.0288 45.2103 18.8337C45.4629 18.627 45.5891 18.3458 45.5891 17.99C45.5891 17.6915 45.4858 17.4447 45.2792 17.2496C45.0841 17.0545 44.8373 16.8938 44.5388 16.7675C44.2519 16.6412 43.8386 16.4977 43.2991 16.337C42.5186 16.096 41.8815 15.8549 41.3879 15.6139C40.8943 15.3728 40.4696 15.017 40.1138 14.5464C39.7579 14.0757 39.58 13.4616 39.58 12.704C39.58 11.5791 39.9875 10.701 40.8025 10.0697C41.6175 9.42687 42.6793 9.10547 43.9878 9.10547C45.3194 9.10547 46.3926 9.42687 47.2076 10.0697C48.0226 10.701 48.4588 11.5849 48.5162 12.7213H45.3308C45.3079 12.331 45.1644 12.0268 44.9004 11.8087C44.6364 11.5791 44.2978 11.4643 43.8845 11.4643C43.5287 11.4643 43.2417 11.5619 43.0236 11.757C42.8055 11.9407 42.6965 12.2105 42.6965 12.5663C42.6965 12.9566 42.8801 13.2608 43.2475 13.4789C43.6148 13.6969 44.1887 13.9323 44.9693 14.1848C45.7498 14.4488 46.3812 14.7013 46.8633 14.9424C47.3568 15.1834 47.7816 15.5335 48.1374 15.9927C48.4932 16.4518 48.6712 17.043 48.6712 17.7661C48.6712 18.4549 48.4932 19.0805 48.1374 19.6429C47.793 20.2054 47.288 20.653 46.6222 20.9859C45.9564 21.3188 45.1701 21.4852 44.2633 21.4852Z" fill="white"/>
<path d="M59.7808 11.757L53.7545 25.9275H50.5864L52.7903 21.0376L48.8818 11.757H52.1704L54.3916 17.7661L56.5955 11.757H59.7808Z" fill="white"/>
<path d="M66.1831 11.6537C67.308 11.6537 68.2034 12.0211 68.8691 12.7557C69.5464 13.4789 69.885 14.4775 69.885 15.7516V21.3647H66.9579V16.1476C66.9579 15.5048 66.7915 15.0055 66.4586 14.6497C66.1257 14.2938 65.678 14.1159 65.1156 14.1159C64.5531 14.1159 64.1055 14.2938 63.7726 14.6497C63.4397 15.0055 63.2733 15.5048 63.2733 16.1476V21.3647H60.329V11.757H63.2733V13.0312C63.5717 12.6065 63.9735 12.2736 64.4785 12.0325C64.9836 11.78 65.5518 11.6537 66.1831 11.6537Z" fill="white"/>
<path d="M70.829 16.5609C70.829 15.5622 71.0299 14.6899 71.4317 13.9437C71.8449 13.1976 72.4131 12.6237 73.1362 12.2219C73.8709 11.8202 74.7088 11.6193 75.6501 11.6193C76.8553 11.6193 77.8597 11.935 78.6632 12.5663C79.4782 13.1976 80.012 14.0872 80.2645 15.2351H77.1308C76.8668 14.5005 76.356 14.1331 75.5984 14.1331C75.0589 14.1331 74.6285 14.3455 74.3071 14.7702C73.9857 15.1834 73.825 15.7803 73.825 16.5609C73.825 17.3414 73.9857 17.9441 74.3071 18.3688C74.6285 18.782 75.0589 18.9886 75.5984 18.9886C76.356 18.9886 76.8668 18.6213 77.1308 17.8867H80.2645C80.012 19.0116 79.4782 19.8954 78.6632 20.5382C77.8482 21.1811 76.8439 21.5025 75.6501 21.5025C74.7088 21.5025 73.8709 21.3016 73.1362 20.8998C72.4131 20.4981 71.8449 19.9241 71.4317 19.178C71.0299 18.4319 70.829 17.5595 70.829 16.5609Z" fill="white"/>
<path d="M85.6963 21.5025C84.755 21.5025 83.9056 21.3016 83.148 20.8998C82.4019 20.4981 81.8107 19.9241 81.3745 19.178C80.9498 18.4319 80.7375 17.5595 80.7375 16.5609C80.7375 15.5737 80.9556 14.7071 81.3918 13.961C81.8279 13.2034 82.4248 12.6237 83.1824 12.2219C83.94 11.8202 84.7894 11.6193 85.7307 11.6193C86.672 11.6193 87.5214 11.8202 88.279 12.2219C89.0366 12.6237 89.6335 13.2034 90.0696 13.961C90.5058 14.7071 90.7239 15.5737 90.7239 16.5609C90.7239 17.548 90.5001 18.4204 90.0524 19.178C89.6162 19.9241 89.0136 20.4981 88.2445 20.8998C87.4869 21.3016 86.6375 21.5025 85.6963 21.5025ZM85.6963 18.9542C86.2587 18.9542 86.7351 18.7476 87.1254 18.3343C87.5271 17.9211 87.728 17.33 87.728 16.5609C87.728 15.7918 87.5329 15.2007 87.1426 14.7874C86.7638 14.3742 86.2932 14.1676 85.7307 14.1676C85.1568 14.1676 84.6804 14.3742 84.3016 14.7874C83.9228 15.1892 83.7334 15.7803 83.7334 16.5609C83.7334 17.33 83.9171 17.9211 84.2844 18.3343C84.6632 18.7476 85.1338 18.9542 85.6963 18.9542Z" fill="white"/>
<path d="M94.7137 13.3583C95.058 12.8303 95.4885 12.4171 96.005 12.1186C96.5216 11.8087 97.0955 11.6537 97.7268 11.6537V14.7702H96.9176C96.1829 14.7702 95.632 14.9309 95.2646 15.2523C94.8973 15.5622 94.7137 16.1132 94.7137 16.9052V21.3647H91.7694V11.757H94.7137V13.3583Z" fill="white"/>
<path d="M107.674 16.4059C107.674 16.6814 107.657 16.9684 107.623 17.2668H100.959C101.005 17.8637 101.195 18.3229 101.527 18.6443C101.872 18.9542 102.291 19.1092 102.784 19.1092C103.519 19.1092 104.03 18.7992 104.317 18.1794H107.45C107.29 18.8107 106.997 19.3789 106.572 19.884C106.159 20.389 105.637 20.785 105.005 21.072C104.374 21.359 103.668 21.5025 102.888 21.5025C101.946 21.5025 101.108 21.3016 100.374 20.8998C99.6392 20.4981 99.0653 19.9241 98.652 19.178C98.2388 18.4319 98.0322 17.5595 98.0322 16.5609C98.0322 15.5622 98.2331 14.6899 98.6348 13.9437C99.048 13.1976 99.622 12.6237 100.357 12.2219C101.091 11.8202 101.935 11.6193 102.888 11.6193C103.817 11.6193 104.644 11.8144 105.367 12.2047C106.09 12.595 106.653 13.1517 107.054 13.8749C107.468 14.598 107.674 15.4417 107.674 16.4059ZM104.661 15.6311C104.661 15.126 104.489 14.7243 104.145 14.4258C103.8 14.1274 103.37 13.9782 102.853 13.9782C102.36 13.9782 101.941 14.1217 101.596 14.4086C101.263 14.6956 101.057 15.1031 100.976 15.6311H104.661Z" fill="white"/>
<path d="M39.3906 29.3915C39.3906 28.1977 39.6489 27.1359 40.1654 26.2061C40.682 25.2649 41.3994 24.536 42.3177 24.0194C43.2475 23.4914 44.2978 23.2274 45.4686 23.2274C46.9034 23.2274 48.1317 23.6062 49.1533 24.3638C50.1749 25.1214 50.8578 26.1545 51.2022 27.463H47.9652C47.7242 26.958 47.3798 26.5734 46.9321 26.3094C46.4959 26.0454 45.9966 25.9134 45.4342 25.9134C44.5273 25.9134 43.7927 26.2291 43.2302 26.8604C42.6678 27.4917 42.3866 28.3354 42.3866 29.3915C42.3866 30.4475 42.6678 31.2912 43.2302 31.9225C43.7927 32.5538 44.5273 32.8695 45.4342 32.8695C45.9966 32.8695 46.4959 32.7375 46.9321 32.4735C47.3798 32.2095 47.7242 31.8249 47.9652 31.3199H51.2022C50.8578 32.6284 50.1749 33.6615 49.1533 34.4191C48.1317 35.1652 46.9034 35.5383 45.4686 35.5383C44.2978 35.5383 43.2475 35.28 42.3177 34.7635C41.3994 34.2355 40.682 33.5066 40.1654 32.5768C39.6489 31.647 39.3906 30.5852 39.3906 29.3915Z" fill="white"/>
<path d="M56.8621 35.5899C55.9208 35.5899 55.0714 35.3891 54.3138 34.9873C53.5677 34.5856 52.9766 34.0116 52.5404 33.2655C52.1157 32.5194 51.9033 31.647 51.9033 30.6484C51.9033 29.6612 52.1214 28.7946 52.5576 28.0484C52.9938 27.2909 53.5907 26.7112 54.3483 26.3094C55.1059 25.9077 55.9553 25.7068 56.8965 25.7068C57.8378 25.7068 58.6872 25.9077 59.4448 26.3094C60.2024 26.7112 60.7993 27.2909 61.2355 28.0484C61.6717 28.7946 61.8898 29.6612 61.8898 30.6484C61.8898 31.6355 61.6659 32.5079 61.2183 33.2655C60.7821 34.0116 60.1794 34.5856 59.4104 34.9873C58.6528 35.3891 57.8033 35.5899 56.8621 35.5899ZM56.8621 33.0417C57.4246 33.0417 57.9009 32.8351 58.2912 32.4218C58.6929 32.0086 58.8938 31.4174 58.8938 30.6484C58.8938 29.8793 58.6987 29.2881 58.3084 28.8749C57.9296 28.4617 57.459 28.2551 56.8965 28.2551C56.3226 28.2551 55.8462 28.4617 55.4674 28.8749C55.0886 29.2767 54.8992 29.8678 54.8992 30.6484C54.8992 31.4174 55.0829 32.0086 55.4502 32.4218C55.829 32.8351 56.2996 33.0417 56.8621 33.0417Z" fill="white"/>
<path d="M68.7894 25.7412C69.9143 25.7412 70.8096 26.1085 71.4754 26.8432C72.1526 27.5663 72.4912 28.565 72.4912 29.8391V35.4522H69.5642V30.2351C69.5642 29.5923 69.3977 29.093 69.0648 28.7372C68.732 28.3813 68.2843 28.2034 67.7218 28.2034C67.1594 28.2034 66.7117 28.3813 66.3788 28.7372C66.0459 29.093 65.8795 29.5923 65.8795 30.2351V35.4522H62.9352V25.8445H65.8795V27.1187C66.1779 26.694 66.5797 26.3611 67.0848 26.12C67.5898 25.8675 68.158 25.7412 68.7894 25.7412Z" fill="white"/>
<path d="M77.9292 35.5899C77.0912 35.5899 76.3451 35.4465 75.6908 35.1595C75.0365 34.8725 74.52 34.4823 74.1412 33.9887C73.7624 33.4836 73.5501 32.9212 73.5041 32.3013H76.414C76.4484 32.6342 76.6034 32.9039 76.8789 33.1105C77.1544 33.3172 77.493 33.4205 77.8947 33.4205C78.2621 33.4205 78.5433 33.3516 78.7384 33.2139C78.945 33.0646 79.0483 32.8752 79.0483 32.6457C79.0483 32.3702 78.9049 32.1693 78.6179 32.043C78.3309 31.9053 77.866 31.7561 77.2232 31.5954C76.5345 31.4347 75.9606 31.2682 75.5014 31.096C75.0423 30.9124 74.6463 30.6312 74.3134 30.2524C73.9805 29.8621 73.8141 29.3398 73.8141 28.6855C73.8141 28.1345 73.9633 27.6352 74.2617 27.1875C74.5717 26.7284 75.0193 26.3668 75.6047 26.1028C76.2016 25.8388 76.9076 25.7068 77.7226 25.7068C78.9278 25.7068 79.8748 26.0052 80.5635 26.6021C81.2637 27.199 81.6655 27.9911 81.7688 28.9782H79.0483C79.0024 28.6453 78.8532 28.3813 78.6007 28.1862C78.3596 27.9911 78.0382 27.8935 77.6365 27.8935C77.2921 27.8935 77.0281 27.9624 76.8444 28.1001C76.6608 28.2264 76.5689 28.4043 76.5689 28.6339C76.5689 28.9093 76.7124 29.116 76.9994 29.2537C77.2978 29.3915 77.757 29.5292 78.3768 29.6669C79.0885 29.8506 79.6682 30.0343 80.1159 30.2179C80.5635 30.3901 80.9538 30.6771 81.2867 31.0788C81.6311 31.4691 81.809 31.9971 81.8205 32.6629C81.8205 33.2253 81.6598 33.7304 81.3383 34.1781C81.0284 34.6143 80.575 34.9586 79.9781 35.2112C79.3927 35.4637 78.7097 35.5899 77.9292 35.5899Z" fill="white"/>
<path d="M92.5924 25.8445V35.4522H89.6481V34.1436C89.3496 34.5683 88.9421 34.9127 88.4256 35.1767C87.9205 35.4292 87.3581 35.5555 86.7382 35.5555C86.0036 35.5555 85.355 35.3948 84.7926 35.0734C84.2301 34.7405 83.7939 34.2642 83.484 33.6443C83.1741 33.0245 83.0191 32.2956 83.0191 31.4576V25.8445H85.9462V31.0616C85.9462 31.7044 86.1126 32.2037 86.4455 32.5596C86.7784 32.9154 87.2261 33.0933 87.7885 33.0933C88.3625 33.0933 88.8159 32.9154 89.1487 32.5596C89.4816 32.2037 89.6481 31.7044 89.6481 31.0616V25.8445H92.5924Z" fill="white"/>
<path d="M97.135 22.7109V35.4522H94.1907V22.7109H97.135Z" fill="white"/>
<path d="M104.107 32.9556V35.4522H102.609C101.541 35.4522 100.709 35.1939 100.112 34.6774C99.5154 34.1494 99.217 33.2942 99.217 32.1119V28.2895H98.0462V25.8445H99.217V23.5029H102.161V25.8445H104.09V28.2895H102.161V32.1463C102.161 32.4333 102.23 32.6399 102.368 32.7662C102.506 32.8925 102.735 32.9556 103.057 32.9556H104.107Z" fill="white"/>
<path d="M106.711 24.8459C106.195 24.8459 105.77 24.6967 105.437 24.3982C105.116 24.0883 104.955 23.7095 104.955 23.2618C104.955 22.8027 105.116 22.4239 105.437 22.1254C105.77 21.8155 106.195 21.6606 106.711 21.6606C107.216 21.6606 107.629 21.8155 107.951 22.1254C108.284 22.4239 108.45 22.8027 108.45 23.2618C108.45 23.7095 108.284 24.0883 107.951 24.3982C107.629 24.6967 107.216 24.8459 106.711 24.8459ZM108.175 25.8445V35.4522H105.23V25.8445H108.175Z" fill="white"/>
<path d="M115.646 25.7412C116.771 25.7412 117.666 26.1085 118.332 26.8432C119.009 27.5663 119.348 28.565 119.348 29.8391V35.4522H116.421V30.2351C116.421 29.5923 116.254 29.093 115.921 28.7372C115.589 28.3813 115.141 28.2034 114.578 28.2034C114.016 28.2034 113.568 28.3813 113.235 28.7372C112.903 29.093 112.736 29.5923 112.736 30.2351V35.4522H109.792V25.8445H112.736V27.1187C113.035 26.694 113.436 26.3611 113.941 26.12C114.446 25.8675 115.015 25.7412 115.646 25.7412Z" fill="white"/>
<path d="M124.528 25.7068C125.205 25.7068 125.796 25.8445 126.301 26.12C126.818 26.3955 127.214 26.7571 127.489 27.2048V25.8445H130.433V35.435C130.433 36.3188 130.255 37.1166 129.9 37.8283C129.555 38.5515 129.021 39.1254 128.298 39.5501C127.587 39.9748 126.697 40.1872 125.629 40.1872C124.206 40.1872 123.053 39.8485 122.169 39.1713C121.285 38.5055 120.78 37.5987 120.653 36.4509H123.563C123.655 36.8182 123.873 37.1051 124.218 37.3118C124.562 37.5299 124.987 37.6389 125.492 37.6389C126.1 37.6389 126.582 37.461 126.938 37.1051C127.305 36.7608 127.489 36.2041 127.489 35.435V34.0748C127.202 34.5224 126.806 34.8897 126.301 35.1767C125.796 35.4522 125.205 35.5899 124.528 35.5899C123.735 35.5899 123.018 35.3891 122.375 34.9873C121.732 34.5741 121.222 33.9944 120.843 33.2483C120.476 32.4907 120.292 31.6183 120.292 30.6312C120.292 29.644 120.476 28.7773 120.843 28.0312C121.222 27.2851 121.732 26.7112 122.375 26.3094C123.018 25.9077 123.735 25.7068 124.528 25.7068ZM127.489 30.6484C127.489 29.9137 127.282 29.3341 126.869 28.9093C126.467 28.4846 125.974 28.2723 125.388 28.2723C124.803 28.2723 124.304 28.4846 123.89 28.9093C123.489 29.3226 123.288 29.8965 123.288 30.6312C123.288 31.3658 123.489 31.9512 123.89 32.3874C124.304 32.8121 124.803 33.0245 125.388 33.0245C125.974 33.0245 126.467 32.8121 126.869 32.3874C127.282 31.9627 127.489 31.383 127.489 30.6484Z" fill="white"/>
</g>
<defs>
<clipPath id="clip0_537_516">
<rect width="132.266" height="36.0014" fill="white" transform="translate(4.36719 6.29102)"/>
</clipPath>
</defs>
</svg>
